<svg width="24" height="24" viewBox="0 0 24 24" fill="none" xmlns="http://www.w3.org/2000/svg">
<path d="M12.0022 0.0231323C5.40194 0.0231323 0.0321655 5.39291 0.0321655 11.9932C0.0321655 18.5935 5.40194 23.9633 12.0022 23.9633C18.6025 23.9633 23.9723 18.5935 23.9723 11.9932C23.9723 5.39291 18.6025 0.0231323 12.0022 0.0231323ZM12.0022 4.93086C12.31 4.93086 12.6109 5.02213 12.8668 5.19311C13.1227 5.3641 13.3221 5.60713 13.4399 5.89148C13.5577 6.17582 13.5885 6.4887 13.5285 6.79055C13.4684 7.09241 13.3202 7.36968 13.1026 7.58731C12.8849 7.80493 12.6077 7.95314 12.3058 8.01318C12.004 8.07322 11.6911 8.04241 11.4067 7.92463C11.1224 7.80685 10.8794 7.6074 10.7084 7.3515C10.5374 7.0956 10.4461 6.79474 10.4461 6.48697C10.4461 6.07427 10.6101 5.67846 10.9019 5.38664C11.1937 5.09481 11.5895 4.93086 12.0022 4.93086ZM14.8751 18.457H9.60822C9.35425 18.457 9.11068 18.3562 8.9311 18.1766C8.75151 17.997 8.65062 17.7534 8.65062 17.4994C8.65062 17.2455 8.75151 17.0019 8.9311 16.8223C9.11068 16.6427 9.35425 16.5418 9.60822 16.5418H11.284V11.275H10.3264C10.0725 11.275 9.82889 11.1741 9.6493 10.9945C9.46971 10.8149 9.36882 10.5714 9.36882 10.3174C9.36882 10.0634 9.46971 9.81985 9.6493 9.64027C9.82889 9.46068 10.0725 9.35979 10.3264 9.35979H12.2416C12.4956 9.35979 12.7392 9.46068 12.9188 9.64027C13.0984 9.81985 13.1992 10.0634 13.1992 10.3174V16.5418H14.8751C15.129 16.5418 15.3726 16.6427 15.5522 16.8223C15.7318 17.0019 15.8327 17.2455 15.8327 17.4994C15.8327 17.7534 15.7318 17.997 15.5522 18.1766C15.3726 18.3562 15.129 18.457 14.8751 18.457Z" fill="black"/>
</svg>
